<?xml version="1.0" standalone="no"?><!DOCTYPE svg PUBLIC "-//W3C//DTD SVG 1.1//EN" "http://www.w3.org/Graphics/SVG/1.1/DTD/svg11.dtd"><svg t="1483424639715" class="icon" style="" viewBox="0 0 1024 1024" version="1.1" xmlns="http://www.w3.org/2000/svg" p-id="2539" xmlns:xlink="http://www.w3.org/1999/xlink" width="200" height="200"><defs><style type="text/css"></style></defs><path d="M512 4.836531c280.097364 0 507.163469 227.066105 507.163469 507.173503 0 280.08733-227.066105 507.153435-507.163469 507.153435S4.836531 792.097364 4.836531 512.010034C4.836531 231.902636 231.902636 4.836531 512 4.836531zM711.391514 242.127585l-328.573052 0.451543c-19.416365 3.411661-31.989339 21.202469-31.989339 40.81952l0 62.102264-0.511749 0 0 291.255502c-14.921-15.382577-30.183165-21.573738-49.609564-21.573738-46.779892 0-84.829946 37.859402-84.829946 84.408506 0 46.478863 38.050054 82.261166 84.829946 82.261166 44.582381 0 78.568545-31.497658 82.281235-80.083724l1.414836 0L384.40388 428.424341l337.935051 0.311063 0 170.603116c-13.877433-15.382577-28.647918-18.202215-47.933836-18.202215-46.44876 0-86.836805 37.548339-86.836805 83.766311s40.388045 83.796414 86.836805 83.796414c44.271318 0 81.217599-36.735561 80.70585-83.264596l0.371269 0L755.482215 407.593141l0-92.144949 0-33.574757C755.452112 255.453131 730.797844 242.227927 711.391514 242.127585L711.391514 242.127585zM722.308829 395.491779l-337.413268-0.431475 0-82.311338c0-1.70583 1.244253-3.150769 2.909946-3.471867l330.369192-0.742538c0.21072-0.020069 0.411406-0.060206 0.632161-0.060206 0.842881 0 1.645625 0.290995 2.257717 0.842881 0.822812 0.662264 1.254287 1.645625 1.254287 2.689192l0 31.868927L722.318863 395.491779 722.308829 395.491779z" p-id="2540" fill="#2c2c2c"></path></svg>