<svg xmlns="http://www.w3.org/2000/svg" xmlns:xlink="http://www.w3.org/1999/xlink" viewBox="0 0 263.83 83.12"><defs><style>.cls-1{fill:none;}.cls-2{fill:#fff;}.cls-3{clip-path:url(#clip-path);}</style><clipPath id="clip-path" transform="translate(-0.47 -0.66)"><rect class="cls-1" width="264" height="84"/></clipPath></defs><title>text</title><path class="cls-2" d="M34.88,18.49V22H33.54V18.49Zm10.36,1.39-.27,0h-2a7.62,7.62,0,0,0,.58-1l-1.39-.26A8.88,8.88,0,0,0,45.59,14l-.94-.37-.27,0h-2c.19-.32.35-.61.51-.93l-1.38-.26A8.82,8.82,0,0,1,38.27,16l0-.8v-.72H34.38c.19-.51.38-1.06.54-1.58l-1.41-.35a14,14,0,0,1-2.35,4.82,10.51,10.51,0,0,1,1.2.74v6.13h1.17V23.18H36V17.29H33c.27-.43.54-.94.8-1.46H36.9c-.1,6.5-.19,8.88-.56,9.35a.48.48,0,0,1-.53.29c-.32,0-1,0-1.73-.06a3.8,3.8,0,0,1,.42,1.36,9.68,9.68,0,0,0,2,0A1.53,1.53,0,0,0,37.6,26c.46-.7.58-3.07.67-10a3.54,3.54,0,0,1,1,.9,11.53,11.53,0,0,0,2.18-2h2.27a7.61,7.61,0,0,1-1.44,2A11.6,11.6,0,0,0,41.06,16l-1,.75a11.1,11.1,0,0,1,1.2.94,9.83,9.83,0,0,1-2.79,1.38,5.28,5.28,0,0,1,.78,1.07,12.2,12.2,0,0,0,2.79-1.38,8.58,8.58,0,0,1-3.79,3.55,3.86,3.86,0,0,1,.91,1,11.25,11.25,0,0,0,2.75-2.14h2.4a6.93,6.93,0,0,1-1.46,2.26,11.1,11.1,0,0,0-1.47-1.15l-1,.75a11.67,11.67,0,0,1,1.5,1.3A10.08,10.08,0,0,1,38.08,26a5,5,0,0,1,.78,1.23c3.51-1,6.24-3,7.31-7Z" transform="translate(-0.47 -0.66)"/><path class="cls-2" d="M52.48,15.05c-.54-.61-1.68-1.62-2.46-2.34l-.91,1c.8.77,1.9,1.84,2.43,2.48Zm-.91,8.77V17.44H47.81v1.42h2.37V24a2.91,2.91,0,0,1-1.09,2,5.19,5.19,0,0,1,1,.91c.26-.37.7-.75,3.71-3.14a6.81,6.81,0,0,1-.45-1.26Zm6.24,1.41V19.05h3.46V17.61H57.81v-5H56.28V25.23H52.53V26.7h9.83V25.23ZM67.7,12.57a17.79,17.79,0,0,1-3.79,6.16,9.82,9.82,0,0,1,.82,1.5,16.82,16.82,0,0,0,1.38-1.68v8.61H67.5V16.35A25.64,25.64,0,0,0,69.09,13Zm2.91,6.85a12.4,12.4,0,0,1-2.06,4.87,8.47,8.47,0,0,1,1.26.8,15.93,15.93,0,0,0,2.26-5.39Zm6.69-2.58c-.1.77-.21,1.52-.32,2.06l1.26.24c.21-.9.5-2.3.7-3.52l-1-.21-.24,0H71.62a23,23,0,0,0,.82-2.58L71,12.57a15,15,0,0,1-2.66,5.92,9.28,9.28,0,0,1,1.22,1,15.35,15.35,0,0,0,1.54-2.63h2.16v8.61c0,.21-.08.26-.29.26s-.9,0-1.62,0a5.35,5.35,0,0,1,.53,1.49,5.31,5.31,0,0,0,2.21-.29c.48-.26.64-.69.64-1.46V16.84Zm-1.71,2.87A20.91,20.91,0,0,1,77.38,25l1.42-.51a20.32,20.32,0,0,0-1.89-5.25Zm17.17,2V25H86.71V21.71Zm-7.54,5.47h1.49V26.4h6.05v.74h1.57v-6.8H85.22ZM84.08,16.88V15.13A66.54,66.54,0,0,0,94.39,13.8l-1.23-1.22A66,66,0,0,1,82.54,13.9v4.19c0,2.42-.16,5.76-1.87,8.08a5.92,5.92,0,0,1,1.25,1c1.81-2.46,2.14-6.26,2.16-8.9H95.45V16.88Z" transform="translate(-0.47 -0.66)"/><path class="cls-2" d="M98.16,20.11a16.87,16.87,0,0,0,.62-4.39l-1.15-.14A16.4,16.4,0,0,1,97,19.69ZM104,23.68c.1-.69.21-1.47.32-2.29h1.47l-.53.62a15,15,0,0,1,2.06,1.63l.69-.88a12.54,12.54,0,0,0-1.82-1.38h3c-.06.94-.13,1.7-.21,2.29ZM106.18,18l-.59.62a12.66,12.66,0,0,1,1.73,1.44h-2.83c.08-.69.18-1.39.24-2.06Zm3.22,0c0,.75-.06,1.44-.11,2.06h-1.78l.62-.74A10.61,10.61,0,0,0,106.45,18Zm2.46,3.36v-1.3h-1.18c0-.77.08-1.63.13-2.59a6.47,6.47,0,0,0,0-.67H103.7c.29-.42.58-.85.86-1.33h7.06V14.17h-6.39c.21-.46.4-1,.56-1.46l-1.38-.35a10.76,10.76,0,0,1-2.4,4.26,16.89,16.89,0,0,0-.67-1.65l-.9.35V12.49H99V27.18h1.41V15.64a17.93,17.93,0,0,1,1,2.9l1.07-.5c-.08-.32-.22-.75-.38-1.2a10.12,10.12,0,0,1,1,.72c.11-.13.22-.26.34-.4-.1.91-.19,1.92-.32,2.93h-1.54v1.3h1.36c-.19,1.31-.38,2.56-.58,3.51h6.43a1.9,1.9,0,0,1-.3.77.54.54,0,0,1-.54.24,14.8,14.8,0,0,1-1.5-.06,3.7,3.7,0,0,1,.37,1.25,10.6,10.6,0,0,0,1.78,0,1.52,1.52,0,0,0,1.14-.64,3.52,3.52,0,0,0,.53-1.54h1.34V23.68h-1.2c.08-.62.14-1.38.21-2.29Zm3.91,2.83V20.69h3v3.54Zm3-7.88v3h-3v-3ZM123.28,15c.26-.7.46-1.44.66-2.18l-1.44-.34a15.29,15.29,0,0,1-2.38,5.62v-3h-2.56c.26-.67.56-1.52.83-2.32l-1.62-.27a18.77,18.77,0,0,1-.56,2.59h-1.79v11.7h1.36V25.54h4.34V18.19a7.85,7.85,0,0,1,1.17.83,16.1,16.1,0,0,0,1.46-2.69h3.78c-.21,6-.42,8.45-.93,9a.72.72,0,0,1-.67.27c-.4,0-1.33,0-2.35-.1a3.49,3.49,0,0,1,.48,1.44,17.19,17.19,0,0,0,2.42,0,1.79,1.79,0,0,0,1.39-.75c.64-.8.83-3.28,1.06-10.5,0-.19,0-.7,0-.7Zm2,7.22a28.74,28.74,0,0,0-2.42-3.57l-1.17.66a26.06,26.06,0,0,1,2.34,3.7Z" transform="translate(-0.47 -0.66)"/><path class="cls-2" d="M132.37,27.84a3.88,3.88,0,0,0,2.95-3.73c0-1.22-.53-2-1.54-2a1.26,1.26,0,0,0-1.36,1.28,1.25,1.25,0,0,0,1.34,1.26,1,1,0,0,0,.22,0c-.08,1-.8,1.71-2,2.16Z" transform="translate(-0.47 -0.66)"/><path class="cls-2" d="M154.19,22.19a23.13,23.13,0,0,0-3-4.26c.19-1.57.32-3.27.4-5.07L150,12.79c-.21,5.84-.85,10.6-3.43,13.3a8.32,8.32,0,0,1,1.46,1,15.3,15.3,0,0,0,2.93-7.28,22.44,22.44,0,0,1,2.16,3.43Zm1.87-9.41c-.3,6-1.12,10.69-4.18,13.27a12.24,12.24,0,0,1,1.46,1.06A12.63,12.63,0,0,0,156.6,21a12.39,12.39,0,0,0,3.59,5.91,8.53,8.53,0,0,1,1.1-1.36c-2.34-1.6-3.52-4.95-4.08-7.59.22-1.57.38-3.28.5-5.14Zm21.49,8.13V19.47h-6.29V15.76h5.65V14.33h-5.65V12.49H169.7v1.84h-5.52v1.42h5.52v3.71h-6.27v1.44h5.35a15.49,15.49,0,0,1-5.73,4.4,7.16,7.16,0,0,1,1.06,1.25,17.05,17.05,0,0,0,5.6-4.74v5.36h1.57V21.79a17.21,17.21,0,0,0,5.62,4.82,7.3,7.3,0,0,1,1-1.26,15.46,15.46,0,0,1-5.68-4.43Zm-12.18-4.47a11.65,11.65,0,0,1,1.34,3l1.41-.56a11.4,11.4,0,0,0-1.44-2.91Zm8.79,3a28.62,28.62,0,0,0,1.78-3.07l-1.55-.46a19.85,19.85,0,0,1-1.5,3.11Zm10-2.21V15.55h1.57a15.69,15.69,0,0,1-1.17,1.68Zm1.71,5.19H182.7V21.1h3.17ZM182.7,25V23.58h3.17V25Zm4.24-11.92a15.33,15.33,0,0,1-.94,2v-.83h-1.84V12.62h-1.38v1.65H180.5v1.28h2.29v1.68h-3v1.3h3.6a15.23,15.23,0,0,1-4,2.82,6.77,6.77,0,0,1,.86,1.22c.38-.21.74-.43,1.09-.64v5.2h1.34v-.88h3.17v.66h1.41v-7h-3.35c.45-.43.9-.9,1.31-1.38h2.67v-1.3h-1.66a19.43,19.43,0,0,0,2-3.73Zm6.43.22-.22.06h-4.63v13.8H190V14.78h2.55c-.45,1.26-1.1,2.93-1.7,4.18a4.67,4.67,0,0,1,2,3.44c0,.58-.11,1-.45,1.18a1.52,1.52,0,0,1-.7.18,7.94,7.94,0,0,1-1.2,0,3.68,3.68,0,0,1,.4,1.44,8.72,8.72,0,0,0,1.46,0,2.73,2.73,0,0,0,1.09-.37,2.48,2.48,0,0,0,.83-2.24,4.92,4.92,0,0,0-1.89-3.76c.72-1.44,1.52-3.27,2.14-4.77Z" transform="translate(-0.47 -0.66)"/><path class="cls-2" d="M210.21,15.1V13.58h-13.7V15.1h6.75a17.73,17.73,0,0,1-7.2,6.66,8.38,8.38,0,0,1,1,1.33,19.92,19.92,0,0,0,5.46-4.32v8.4h1.62V16.75c.38-.54.72-1.1,1.06-1.65Zm-6,3.39a36.19,36.19,0,0,1,5.27,4.43l1.25-1.15a38.16,38.16,0,0,0-5.39-4.24Zm19.55-3.23H216V14.19h7.83Zm0,2.11H216V16.3h7.83Zm1.5-4.29H214.51v5.38h10.77Zm-4.47,10.44h5.09v-1.3h-5.09V20.7h6.13V19.39h-14V20.7h6.4v4.48a3.89,3.89,0,0,1-2.72-2.34,12.86,12.86,0,0,0,.4-1.5l-1.49-.21a7.18,7.18,0,0,1-3,5,8.71,8.71,0,0,1,1.1,1.06,7.8,7.8,0,0,0,2.37-2.8c1.31,2,3.35,2.48,6.4,2.48h4.42a5.1,5.1,0,0,1,.51-1.41c-.94,0-4.15,0-4.85,0s-1.14,0-1.63-.06ZM232.1,12.57a18.33,18.33,0,0,1-3.28,6.27,15.47,15.47,0,0,1,.75,1.57,14.24,14.24,0,0,0,1.26-1.76v8.53h1.36v-11a30.7,30.7,0,0,0,1.3-3.22Zm9.7,4.21a20,20,0,0,1-1,4.83,21,21,0,0,1-.94-4.45,3.48,3.48,0,0,0,.11-.38Zm-5.06,7.38h-2.16V21h2.16Zm7.07-7.38V15.52h-3.49c.24-.9.4-1.84.56-2.77l-1.34-.24a16.92,16.92,0,0,1-2,6.67c.11.13.26.3.4.5h-1.5V16.84h1.9V15.5h-1.9V12.7H235v2.8h-2v1.34h2v2.83h-1.7v6.83h1.3V25.44h3.47V19.92a2.84,2.84,0,0,1,.3.46,9.91,9.91,0,0,0,.67-1.15,19,19,0,0,0,1.07,4,7.69,7.69,0,0,1-2.93,3,6.8,6.8,0,0,1,.93,1,9.29,9.29,0,0,0,2.67-2.63A8.48,8.48,0,0,0,243,27.17a6.06,6.06,0,0,1,.9-1.18,7.05,7.05,0,0,1-2.43-2.74,20.46,20.46,0,0,0,1.58-6.47Z" transform="translate(-0.47 -0.66)"/><path class="cls-2" d="M256.2,22.51c0,.29-.11.37-.42.38s-1.46,0-2.55,0a6.08,6.08,0,0,1,.51,1.52,9.87,9.87,0,0,0,3.12-.29c.62-.22.85-.64.85-1.57V16.7h2.08V15.29h-2.08V12.57H256.2v2.72h-6V16.7h6Zm-5.39-4.15a25,25,0,0,1,2.19,3.2l1.25-.77A22.32,22.32,0,0,0,252,17.71Zm-1.25-2.75a16.13,16.13,0,0,0-2.4-2.66l-1.15.77a14.93,14.93,0,0,1,2.32,2.75Zm-.42,2.79h-3.49v1.39h2v3.87a7.29,7.29,0,0,0-2.32,1.81l1.06,1.46c.7-1,1.44-2,1.94-2s.88.53,1.57.93a8.49,8.49,0,0,0,4.47.85c1.55,0,4.27-.1,5.38-.16a5.93,5.93,0,0,1,.46-1.63,55.1,55.1,0,0,1-5.79.34,8.25,8.25,0,0,1-4.21-.74c-.48-.27-.8-.51-1.09-.7Z" transform="translate(-0.47 -0.66)"/><path class="cls-2" d="M4.47,34.65A17.77,17.77,0,0,1,.59,40.89a8.37,8.37,0,0,1,.83,1.52,17.81,17.81,0,0,0,1.5-1.84v8.68H4.37v-11a25.15,25.15,0,0,0,1.49-3.2ZM15.25,40H11.12V34.78H9.59V40H5.3v1.46H9.59v7.84h1.54V41.42h4.13Zm8.25-5.25a22.68,22.68,0,0,1-6,6.55,10.67,10.67,0,0,1,1.17,1.07A28.16,28.16,0,0,0,25,35.27Zm8.24,13.56a32.18,32.18,0,0,0-3.7-5.7l-1.36.66a29.45,29.45,0,0,1,2,2.83l-7.39.54a48.93,48.93,0,0,0,7.39-8.15l-1.55-.75a45.63,45.63,0,0,1-6.71,7.72,6.67,6.67,0,0,1-2.18,1.52,14.55,14.55,0,0,1,.62,1.5c.69-.26,1.73-.26,10.64-1,.34.59.62,1.15.83,1.62Z" transform="translate(-0.47 -0.66)"/><path class="cls-2" d="M35.65,49.92a3.88,3.88,0,0,0,2.95-3.73c0-1.22-.53-2-1.54-2a1.26,1.26,0,0,0-1.36,1.28A1.25,1.25,0,0,0,37,46.74a1,1,0,0,0,.22,0c-.08,1-.8,1.71-2,2.16Z" transform="translate(-0.47 -0.66)"/><path class="cls-2" d="M64.61,36.8v-1.5H50.32v1.5h6c-.13.66-.3,1.41-.48,2H51.1V49.28h1.52V40.22h2.16v8.56h1.49V40.22h2.26v8.56H60V40.22h2.35v7.33c0,.22-.08.29-.32.3s-1,0-1.74,0a7.25,7.25,0,0,1,.48,1.36,6.54,6.54,0,0,0,2.43-.26c.51-.22.66-.62.66-1.38V38.83H57.44c.22-.61.46-1.33.66-2Zm13.25.54H70V36.27h7.83Zm0,2.11H70V38.38h7.83Zm1.5-4.29H68.59v5.38H79.36ZM74.9,45.6H80V44.3H74.9V42.78H81V41.47H67v1.31h6.4v4.48a3.89,3.89,0,0,1-2.72-2.34,12.86,12.86,0,0,0,.4-1.5l-1.49-.21a7.18,7.18,0,0,1-3,5,8.71,8.71,0,0,1,1.1,1.06A7.8,7.8,0,0,0,70,46.5c1.31,2,3.35,2.48,6.4,2.48h4.42a5.1,5.1,0,0,1,.51-1.41c-.94,0-4.15,0-4.85,0s-1.14,0-1.63-.06Z" transform="translate(-0.47 -0.66)"/><path class="cls-2" d="M95.38,37.82H91.84V36.6h3.54Zm0,2.38H91.84V39h3.54Zm0,2.38H91.84V41.33h3.54Zm1.42-7.19H90.48v8.37h6.32Zm-7.89,8.92A28.93,28.93,0,0,1,91,46.62l1.09-.91c-.5-.58-1.47-1.52-2.19-2.19Zm-4.53,4.1A13.91,13.91,0,0,0,85.81,45l-1.31-.53A10.9,10.9,0,0,1,83,47.74Zm3-4.47V40.32c.66.56,1.42,1.26,1.81,1.66l.8-1.22c-.42-.3-2-1.46-2.61-1.82v-.77h2.4V36.91h-2.4V34.62H86v2.29H83.25v1.26h2.53A10,10,0,0,1,82.86,42a6.12,6.12,0,0,1,1,1.06A10.37,10.37,0,0,0,86,40.22V44Zm1.86,3.65c-.91,0-1.07-.06-1.07-.5V44.73H86.74v2.38c0,1.41.5,1.81,2.42,1.81h3.12c1.57,0,2-.5,2.19-2.61a4.17,4.17,0,0,1-1.34-.54c-.1,1.6-.21,1.82-1,1.82Zm5.11-2.77a37.2,37.2,0,0,1,1.87,3.27l1.38-.7c-.42-.82-1.3-2.18-2-3.17Zm8.11-10.18a18.33,18.33,0,0,1-3.28,6.27,15.47,15.47,0,0,1,.75,1.57,14.24,14.24,0,0,0,1.26-1.76v8.53h1.36v-11a30.7,30.7,0,0,0,1.3-3.22Zm9.7,4.21a20,20,0,0,1-1,4.83,21,21,0,0,1-.94-4.45,3.48,3.48,0,0,0,.11-.38Zm-5.06,7.38H105V43h2.16Zm7.07-7.38V37.6h-3.49c.24-.9.4-1.84.56-2.77l-1.34-.24a16.92,16.92,0,0,1-2,6.67c.11.13.26.3.4.5h-1.5V38.92h1.9V37.58h-1.9v-2.8h-1.41v2.8h-2v1.34h2v2.83h-1.7v6.83H105V47.52h3.47V42a2.84,2.84,0,0,1,.3.46,9.91,9.91,0,0,0,.67-1.15,19,19,0,0,0,1.07,4,7.69,7.69,0,0,1-2.93,3,6.8,6.8,0,0,1,.93,1,9.29,9.29,0,0,0,2.67-2.63,8.48,8.48,0,0,0,2.27,2.61,6.06,6.06,0,0,1,.9-1.18,7.05,7.05,0,0,1-2.43-2.74,20.46,20.46,0,0,0,1.58-6.47Zm7,4.74c.3.61.62,1.33.9,2l-3.39.54a25.05,25.05,0,0,0,2-4.1h3.11V40.67H121V38.33h2.46V36.92H121V34.57h-1.44v2.35H116.9v1.41h2.66v2.34h-3.17v1.41h2.77a23.31,23.31,0,0,1-1.65,3.65c-.32.51-.58.85-.86.91.16.38.38,1.09.46,1.36.43-.21,1.06-.37,5.46-1.17a10.56,10.56,0,0,1,.4,1.31l1.26-.62a26.74,26.74,0,0,0-1.86-4.43Zm9-8.08h-5.35V49.26h1.42V36.91h2.5V45c0,.21-.06.27-.26.29s-.9,0-1.62,0a5,5,0,0,1,.5,1.52,4.71,4.71,0,0,0,2.19-.3c.48-.24.61-.72.61-1.44Z" transform="translate(-0.47 -0.66)"/><path class="cls-2" d="M140.27,36.51H143v1.9c0,1.52.3,2.11,1.66,2.11h1.38a3.7,3.7,0,0,0,1-.11c0-.4-.1-1-.13-1.44a3.48,3.48,0,0,1-.91.11h-1.23c-.29,0-.34-.18-.34-.64V35.13h-5.65v1.76c0,1.15-.3,2.43-2.4,3.35a5.48,5.48,0,0,1,1,1.1,4.5,4.5,0,0,0,2.83-4.4Zm-3.39,0c-.69-.46-2-1.2-2.93-1.68l-.83,1.07A31.64,31.64,0,0,1,136,37.69Zm-.78,4.19a23.27,23.27,0,0,0-3-1.6l-.8,1.09a30.56,30.56,0,0,1,2.95,1.74ZM135.68,43a47.63,47.63,0,0,1-2.85,5.06l1.25,1c.9-1.5,1.9-3.41,2.69-5.07Zm8.32-.11a8.38,8.38,0,0,1-2.34,2.69,8.71,8.71,0,0,1-2.34-2.69Zm1.06-1.44-.27,0h-7.51v1.39h1.18l-.59.21a10.8,10.8,0,0,0,2.53,3.31,14.16,14.16,0,0,1-4.29,1.47,4.51,4.51,0,0,1,.77,1.34,15.85,15.85,0,0,0,4.77-1.86,13.77,13.77,0,0,0,4.59,1.86,5.87,5.87,0,0,1,1-1.36A13.54,13.54,0,0,1,143,46.43a9.84,9.84,0,0,0,3.07-4.56Zm15,.78h-6.26V40.86H160Zm-6.26,2.64V43.5H160v1.39ZM163.33,38V36.57h-8c.21-.54.38-1.1.56-1.65l-1.52-.35a17.29,17.29,0,0,1-.67,2h-4.39V38h3.78a13.27,13.27,0,0,1-4.21,5,8.27,8.27,0,0,1,1,1.15,12.58,12.58,0,0,0,2.4-2.21v7.33h1.47V46.14H160v1.38c0,.24-.08.32-.35.32s-1.23,0-2.18,0a5.59,5.59,0,0,1,.46,1.44,8.26,8.26,0,0,0,2.79-.24c.58-.22.74-.67.74-1.47v-8H154c.29-.51.58-1.06.83-1.6Zm16.75,4.63V41.1h-6.42V38.41h5.25V36.92h-5.25V34.55H172.1v2.37H167v1.49h5.11V41.1h-6.35v1.49h4.8a23.16,23.16,0,0,1-2.64,3.73,2.79,2.79,0,0,1-1.18,1,10.17,10.17,0,0,1,.51,1.47c.69-.27,1.66-.32,10-1a11.88,11.88,0,0,1,.74,1.36l1.47-.77a26.9,26.9,0,0,0-3.67-5.09l-1.34.61a30.66,30.66,0,0,1,2,2.56l-7.22.46a31.26,31.26,0,0,0,3.25-4.34Z" transform="translate(-0.47 -0.66)"/><path class="cls-2" d="M184.82,34.65a18.33,18.33,0,0,1-3.28,6.27,15.47,15.47,0,0,1,.75,1.57,14.24,14.24,0,0,0,1.26-1.76v8.53h1.36v-11a30.7,30.7,0,0,0,1.3-3.22Zm9.7,4.21a20,20,0,0,1-1,4.83,21,21,0,0,1-.94-4.45,3.48,3.48,0,0,0,.11-.38Zm-5.06,7.38H187.3V43h2.16Zm7.07-7.38V37.6H193c.24-.9.4-1.84.56-2.77l-1.34-.24a16.92,16.92,0,0,1-2,6.67c.11.13.26.3.4.5h-1.5V38.92H191V37.58h-1.9v-2.8H187.7v2.8h-2v1.34h2v2.83H186v6.83h1.3V47.52h3.47V42a2.84,2.84,0,0,1,.3.46,9.91,9.91,0,0,0,.67-1.15,19,19,0,0,0,1.07,4,7.69,7.69,0,0,1-2.93,3,6.8,6.8,0,0,1,.93,1,9.29,9.29,0,0,0,2.67-2.63,8.48,8.48,0,0,0,2.27,2.61,6.06,6.06,0,0,1,.9-1.18,7.05,7.05,0,0,1-2.43-2.74,20.46,20.46,0,0,0,1.58-6.47Zm4,7.44V42.77h3V46.3Zm3-7.88v3h-3v-3ZM208,37.05c.26-.7.46-1.44.66-2.18l-1.44-.34a15.29,15.29,0,0,1-2.38,5.62v-3h-2.56c.26-.67.56-1.52.83-2.32l-1.62-.27a18.77,18.77,0,0,1-.56,2.59h-1.79v11.7h1.36V47.62h4.34V40.27a7.85,7.85,0,0,1,1.17.83,16.1,16.1,0,0,0,1.46-2.69h3.78c-.21,6-.42,8.45-.93,9a.72.72,0,0,1-.67.27c-.4,0-1.33,0-2.35-.1a3.49,3.49,0,0,1,.48,1.44,17.19,17.19,0,0,0,2.42,0,1.79,1.79,0,0,0,1.39-.75c.64-.8.83-3.28,1.06-10.5,0-.19,0-.7,0-.7Zm2,7.22a28.74,28.74,0,0,0-2.42-3.57l-1.17.66a26.06,26.06,0,0,1,2.34,3.7Zm16.37,1.5H223v-1h3.41ZM223,42.7h3.41v.91H223Zm-4.51-3v-1h3v1Zm7.67-1v1H223v-1Zm3.43,4.87h-1.66v-2H223V40.7h4.66V37.76H223v-.82h6.24v-1.2H223V34.57h-1.5v1.17h-6.07v1.2h6.07v.82h-4.43V40.7h4.43v.94h-4.85V42.7h4.85v.91h-6.4v1.17h6.4v1h-5V46.9h5v.85c0,.27-.1.35-.38.37s-1.22,0-2.1,0a4.6,4.6,0,0,1,.51,1.2,9.43,9.43,0,0,0,2.72-.21c.54-.21.75-.54.75-1.36V46.9h3.41v.69h1.5v-2.8h1.66Z" transform="translate(-0.47 -0.66)"/><path class="cls-2" d="M233.74,44.06a2.51,2.51,0,1,0,0,5,2.51,2.51,0,0,0,0-5Zm0,4a1.54,1.54,0,1,1,1.54-1.54,1.54,1.54,0,0,1-1.54,1.54Z" transform="translate(-0.47 -0.66)"/><path class="cls-2" d="M9.32,63.48V63H5.24V60.8H4.75V63H.7v.48H4A9.64,9.64,0,0,1,.48,67.83a2.05,2.05,0,0,1,.34.38,10.62,10.62,0,0,0,3.72-4.73h.21V67.4H2.28v.48H4.75v2h.49v-2H7.73V67.4H5.24V63.48h.19a9.74,9.74,0,0,0,3.8,4.71,2.71,2.71,0,0,1,.36-.4A8.79,8.79,0,0,1,5.9,63.48Zm9.56-.43A11.13,11.13,0,0,1,18,65.12l.4.21a12.44,12.44,0,0,0,1-2.6l-.34-.18-.1,0H15a14.94,14.94,0,0,0,.45-1.69l-.5-.09a10.91,10.91,0,0,1-1.59,4.1,5.06,5.06,0,0,1,.46.27,10,10,0,0,0,1-2.12Zm-5.7-.26a9.23,9.23,0,0,0-1.9-1.3l-.29.34a9.91,9.91,0,0,1,1.89,1.36Zm-.24,2.66a30.94,30.94,0,0,1-2.12,3l.43.33c.64-.83,1.44-2,2.06-3Zm3.67-1.81h-.49v.62c0,1.49-.21,3.67-3.41,5.25a1.65,1.65,0,0,1,.34.36A5.69,5.69,0,0,0,16.44,66a5.43,5.43,0,0,0,3.06,3.75,2.51,2.51,0,0,1,.32-.41C18,68.73,17,67.09,16.6,64.93c0-.22,0-.45,0-.66Zm7.05-1.48a8.71,8.71,0,0,0-.61-1.36l-.42.14a10.26,10.26,0,0,1,.59,1.39Zm-.84,2.3V63h2.24v-.45H21.22V63h1.17V64.6A7.71,7.71,0,0,1,21,69.52a1.7,1.7,0,0,1,.36.29,7.89,7.89,0,0,0,1.42-4.89h1.39c-.08,3-.17,4-.34,4.25a.27.27,0,0,1-.28.13,8.46,8.46,0,0,1-.87,0,1.06,1.06,0,0,1,.13.45c.34,0,.69,0,.9,0a.61.61,0,0,0,.52-.26c.23-.33.31-1.37.39-4.74,0-.07,0-.26,0-.26ZM30,62.65V62.2H26.4a12.79,12.79,0,0,0,.46-1.32l-.47-.1a7.36,7.36,0,0,1-1.55,3.07,2.5,2.5,0,0,1,.39.3,7.29,7.29,0,0,0,1-1.5Zm-.39,2.11A12.83,12.83,0,0,1,28.17,66a18.8,18.8,0,0,1-.42-2,15.74,15.74,0,0,0,2.08-.7L29.39,63a17.43,17.43,0,0,1-3.57,1.1v4.57a.87.87,0,0,1-.29.71,1.66,1.66,0,0,1,.26.39A12.57,12.57,0,0,1,28,68.6a1.73,1.73,0,0,1-.08-.43l-1.67.8V64.42c.34-.07.71-.16,1.06-.25.36,2.46,1.12,4.54,2.5,5.54a1.54,1.54,0,0,1,.34-.38,5.34,5.34,0,0,1-1.89-2.89A13.77,13.77,0,0,0,30,65.06Zm9.72-1.21H35.78V61.61h3.59Zm.46-2.37h-4.5V64h4.5Zm-5.13,5c-.16-.29-.92-1.43-1.18-1.78v-.26h1.36v-.46H33.52v-2a9.54,9.54,0,0,0,1.19-.42l-.35-.39a12,12,0,0,1-2.6.77,2.38,2.38,0,0,1,.15.39l1.15-.24v1.85H31.58v.46H33a11.1,11.1,0,0,1-1.62,3.44,2.32,2.32,0,0,1,.31.44,11.47,11.47,0,0,0,1.38-2.83v4.68h.46V65.05c.3.5.69,1.2.84,1.53Zm3.17,2.95V67.44H40V67H37.87V65.44H40.2V65H35.09v.45h2.3V67H35.32v.44h2.07v1.68H34.62v.46h5.81v-.46Zm11.07-3.44H44.42V64.42h4.52Zm-4.52,1.71V66.11h4.52v1.28Zm6.21-4.79v-.46H45.38a12.81,12.81,0,0,0,.44-1.23l-.47-.11a11.22,11.22,0,0,1-.47,1.34H42v.46h2.7a8.94,8.94,0,0,1-2.9,3.59,2.11,2.11,0,0,1,.3.37,8.45,8.45,0,0,0,1.87-1.86v5.15h.47v-2h4.52v1.29c0,.17,0,.23-.23.23s-.81,0-1.55,0a3.47,3.47,0,0,1,.17.48A7.68,7.68,0,0,0,49,69.73c.28-.08.36-.24.36-.6V64h-5a12.12,12.12,0,0,0,.73-1.38Zm9.88-.84H57a4.33,4.33,0,0,0-.52-1l-.46.12a4.53,4.53,0,0,1,.45.91H52.76v.45H60.5ZM55.35,64a5.19,5.19,0,0,0-.72-1.63l-.44.12a5.39,5.39,0,0,1,.69,1.66ZM59.16,66V67.3h-5V66Zm-5,3V67.72h5V69Zm-.48.83h.48v-.4h5v.37h.49V65.61h-6Zm4.62-5.73c.28-.49.61-1.14.86-1.68l-.5-.15a13.27,13.27,0,0,1-.87,1.83H52.19v.45H61v-.45Zm6.16,2.24a10.76,10.76,0,0,1-2,2.51,4.29,4.29,0,0,1,.38.33,13.32,13.32,0,0,0,2.12-2.68Zm6.72-1v-.48H67.35V62.69h-.48v2.17H63.72a17.14,17.14,0,0,0,.5-2.82,30.43,30.43,0,0,0,6.33-.69l-.32-.41a32.63,32.63,0,0,1-6.49.68,13.18,13.18,0,0,1-.39,2.73c-.09.35-.16.6-.28.63a3.37,3.37,0,0,1,.16.48,2.62,2.62,0,0,1,1.14-.12h2.5v3.82c0,.17-.07.22-.23.22s-.75,0-1.43,0a2,2,0,0,1,.18.47,6.46,6.46,0,0,0,1.6-.09c.26-.09.36-.23.36-.6V65.34ZM68.92,66.6A20.34,20.34,0,0,1,71,69.16l.44-.25a21.19,21.19,0,0,0-2.15-2.52Z" transform="translate(-0.47 -0.66)"/><path class="cls-2" d="M74.78,60.79H74.3V63H72.58v.47h1.67a11.38,11.38,0,0,1-1.9,4,2.53,2.53,0,0,1,.31.42,11.44,11.44,0,0,0,1.64-3.25v5.2h.48V65.08c.41.49,1,1.2,1.18,1.52l.34-.39c-.22-.28-1.17-1.34-1.52-1.7V63.44h1.55V63H74.78Zm2.47,7.91v-2h3.48v2Zm3.48-6.82V63.8H77.25V61.88Zm-3.48,2.37h3.48v2H77.25Zm-.47-2.84v8.35h.47v-.61h3.48v.61h.48V61.41Zm13.57,0a12,12,0,0,1-1.19,2.19,4.19,4.19,0,0,1,.42.24,19.63,19.63,0,0,0,1.22-2.3Zm-2.88,2.21a17.15,17.15,0,0,0-1.3-2.16l-.4.18A18.32,18.32,0,0,1,87,63.85Zm-2.68-2.77a12.74,12.74,0,0,1-2,4.2,3.77,3.77,0,0,1,.28.46A10.18,10.18,0,0,0,84,64v5.9h.46V63a19.63,19.63,0,0,0,.75-2Zm6.94,5.53H88.57V64.66H91.3v-.45H88.57V60.79h-.48v3.42H85.5v.45h2.59v1.73h-3v.46h3v3h.48v-3h3.16Z" transform="translate(-0.47 -0.66)"/><path class="cls-2" d="M94,70a2.3,2.3,0,0,0,1.58-2.18c0-.62-.25-1-.72-1a.58.58,0,0,0-.62.61.56.56,0,0,0,.62.61l.21,0a1.83,1.83,0,0,1-1.24,1.64Z" transform="translate(-0.47 -0.66)"/><path class="cls-2" d="M103.87,66.32H107a16.82,16.82,0,0,1-1.87,2.23,1.73,1.73,0,0,1-.73.54,5.18,5.18,0,0,1,.17.52c.31-.11.79-.15,6.29-.64a8.12,8.12,0,0,1,.6.87l.43-.27a13.27,13.27,0,0,0-2.3-2.64l-.4.21a14.63,14.63,0,0,1,1.32,1.39l-5.16.45a19.56,19.56,0,0,0,2.3-2.66h4.5v-.47h-8.24Zm1.71-2.38v.45h4.81v-.45ZM108,60.82a10.49,10.49,0,0,1-4.57,3.56,1.9,1.9,0,0,1,.36.39,12,12,0,0,0,4.15-3,12.12,12.12,0,0,0,4.17,2.91,3.37,3.37,0,0,1,.34-.43,11.24,11.24,0,0,1-4.23-2.83l.27-.37Zm14,.27a12.69,12.69,0,0,1-1.16,1.9l.4.2a15.65,15.65,0,0,0,1.21-1.88Zm-6.26,3.61A9.93,9.93,0,0,0,114,63.57l-.28.33a10,10,0,0,1,1.75,1.18Zm-1.31,5c.53-.91,1.18-2.23,1.65-3.28l-.37-.3A28.84,28.84,0,0,1,114,69.41Zm-.25-8.48a7.57,7.57,0,0,1,1.69,1.2l.3-.37a7.83,7.83,0,0,0-1.71-1.16ZM118.34,63a8,8,0,0,0-1.09-1.86l-.41.19a7.46,7.46,0,0,1,1.06,1.89Zm-.77,4.11V65.83h4.07v1.28Zm4.07-3V65.4h-4.07V64.13Zm.47-.46h-2.22V60.78h-.48v2.89H117.1v6.19h.47V67.55h4.07v1.57c0,.14,0,.19-.21.2s-.68,0-1.32,0a2.5,2.5,0,0,1,.18.47,6.54,6.54,0,0,0,1.49-.08c.25-.09.33-.25.33-.58Zm5.9,2v-.44h-1.63V64h1.27v-.44h-1.27v-1.2h1.44v-.43h-1.44V60.79h-.45v1.13h-1.64v.43h1.64v1.2h-1.42V64h1.42v1.23h-1.8v.44h1.57A8.61,8.61,0,0,1,124,68.19a2.85,2.85,0,0,1,.26.41,9.34,9.34,0,0,0,1.63-2.54v3.78h.45V66.2c.4.51,1,1.27,1.18,1.61l.32-.4c-.21-.28-1-1.33-1.42-1.75Zm2.86,3.62c-.41,0-.49-.09-.49-.5V66.67l2.77-.42-.07-.43-2.7.4V64.4l2.41-.38-.08-.43-2.33.37V62.17a11.11,11.11,0,0,0,2.07-1l-.42-.33a14.49,14.49,0,0,1-3.93,1.67,1.53,1.53,0,0,1,.17.37c.54-.17,1.09-.34,1.64-.54V64l-1.72.27.07.43,1.65-.26v1.81l-1.95.29L128,67l1.88-.28v2c0,.74.2.91.93.91h1.5c.67,0,.8-.38.86-1.69a1.11,1.11,0,0,1-.42-.21c0,1.22-.1,1.5-.46,1.5Zm4.51-2.77a22.38,22.38,0,0,0,2.57-3.32l-.43-.25a13.18,13.18,0,0,1-.71,1.12l-1.68.18A20,20,0,0,0,137,61l-.46-.2A16.73,16.73,0,0,1,135,63.71c-.24.35-.43.59-.59.63a3.18,3.18,0,0,1,.15.47,10.77,10.77,0,0,1,1.95-.3,13.46,13.46,0,0,1-1.26,1.55,2.12,2.12,0,0,1-.77.67c0,.13.12.35.15.46a20.3,20.3,0,0,1,3.43-.66,2.62,2.62,0,0,1,0-.42Zm-.88,2.67,3.65-.77,0-.43c-1.38.28-2.79.57-3.71.73Zm6.86-2.46a11.52,11.52,0,0,0-2-2.2l-.35.28A10.51,10.51,0,0,1,141,67Zm1.7-4.06h-3.48a14.76,14.76,0,0,0,.61-1.77l-.47-.1a9.93,9.93,0,0,1-1.61,3.6,2.39,2.39,0,0,1,.41.26,8.54,8.54,0,0,0,.88-1.54h3.19c-.13,4.22-.29,5.75-.61,6.1a.4.4,0,0,1-.39.14c-.22,0-.8,0-1.44-.06a1.1,1.1,0,0,1,.16.47,12.17,12.17,0,0,0,1.41,0,.83.83,0,0,0,.69-.32c.38-.45.5-1.95.65-6.54Z" transform="translate(-0.47 -0.66)"/><path class="cls-2" d="M146.82,69.25a2,2,0,0,0,2.2-2.06,1.9,1.9,0,0,0-1.6-1.88v0a1.82,1.82,0,0,0,1.34-1.8,1.77,1.77,0,0,0-2-1.77,2.83,2.83,0,0,0-1.95.86l.34.4a2.29,2.29,0,0,1,1.6-.77,1.28,1.28,0,0,1,1.38,1.32c0,.87-.56,1.56-2.16,1.56v.49c1.74,0,2.42.66,2.42,1.64a1.52,1.52,0,0,1-1.62,1.56,2.49,2.49,0,0,1-1.92-.89l-.33.39a3,3,0,0,0,2.27,1Z" transform="translate(-0.47 -0.66)"/><path class="cls-2" d="M151,69.25a.55.55,0,1,0-.51-.54.51.51,0,0,0,.51.54Z" transform="translate(-0.47 -0.66)"/><path class="cls-2" d="M155.35,69.25a2,2,0,0,0,2.18-1.85,2.14,2.14,0,0,0-1.24-1.9v0a2.55,2.55,0,0,0,1-1.81,1.81,1.81,0,0,0-1.93-1.91,1.79,1.79,0,0,0-1.88,1.8,2,2,0,0,0,1,1.66v0a2.46,2.46,0,0,0-1.39,2.08,2.06,2.06,0,0,0,2.26,1.94Zm.51-4c-.91-.36-1.82-.77-1.82-1.76a1.28,1.28,0,0,1,1.31-1.33,1.37,1.37,0,0,1,1.4,1.46,2.13,2.13,0,0,1-.89,1.63Zm-.51,3.49a1.57,1.57,0,0,1-1.71-1.5,2.17,2.17,0,0,1,1.19-1.83c1.1.43,2.12.83,2.12,1.94a1.45,1.45,0,0,1-1.6,1.39Z" transform="translate(-0.47 -0.66)"/><path class="cls-2" d="M159.46,69.12H160V64.5c0-.6,0-1.4-.07-2h0l.57,1.63,1.54,4.22h.48l1.53-4.22.57-1.63h0c0,.61-.07,1.41-.07,2v4.62h.57V61.83h-.8L162.91,66c-.18.53-.35,1.07-.54,1.6h0l-.57-1.6-1.5-4.19h-.8Zm8.16,0h2.16c1.64,0,2.72-.72,2.72-2.13a1.69,1.69,0,0,0-1.56-1.75v0a1.57,1.57,0,0,0,1.12-1.59c0-1.23-1-1.77-2.43-1.77h-2Zm.6-4.11V62.32h1.28c1.29,0,2,.36,2,1.35,0,.83-.58,1.34-2,1.34Zm0,3.61V65.49h1.42c1.45,0,2.27.48,2.27,1.5s-.86,1.63-2.27,1.63Z" transform="translate(-0.47 -0.66)"/><path class="cls-2" d="M182.62,65.12a17.82,17.82,0,0,0-1.82-2.2l-.37.22c.3.32.63.69.92,1.06l-3.69.22c.42-.5,1-1.26,1.43-1.81h3.6v-.45h-2.79a9.25,9.25,0,0,0-.57-1.34l-.43.11a8.57,8.57,0,0,1,.5,1.23h-3v.45h2.11a19.66,19.66,0,0,1-1.37,1.67,1.2,1.2,0,0,1-.59.27c0,.11.12.36.15.49.26-.11.67-.14,5-.43.22.29.41.56.54.77Zm-6.48-2.87a8.46,8.46,0,0,0-1.63-1.31l-.3.32a9.84,9.84,0,0,1,1.64,1.35Zm-.34,2.46A7.9,7.9,0,0,0,174,63.65l-.27.34a7.76,7.76,0,0,1,1.79,1.13Zm.13,1.43a33.48,33.48,0,0,1-1.9,3.25l.4.32a37.09,37.09,0,0,0,1.85-3.26Zm1.37.42a3.17,3.17,0,0,1-1.4,2.95,1.84,1.84,0,0,1,.35.33,3.61,3.61,0,0,0,1.5-3.27v-1.1h-.45Zm1.81,2.87h.44V65.5h-.44Zm2.57-.15a.4.4,0,0,1-.2,0c-.06,0-.07-.16-.07-.38V65.47H181v3.29c0,.56,0,.69.17.79a.81.81,0,0,0,.47.13h.48a.94.94,0,0,0,.43-.09.48.48,0,0,0,.23-.35,8.46,8.46,0,0,0,.08-1.13.94.94,0,0,1-.36-.18c0,.49,0,.86,0,1a.43.43,0,0,1-.12.28.62.62,0,0,1-.26,0Zm9.61-7.13h-5.42v-.67h5.42Zm0,1h-5.42v-.69h5.42Zm.48-2h-6.37v2.41h6.37ZM193,64h-8.83v.41H193Zm-7.32,3v-.71h2.66v.71Zm0-1.74h2.66V66h-2.66Zm5.94.69h-2.81v-.69h2.81Zm0,1h-2.81v-.71h2.81Zm-2.81,2.12v-.7h3.49v-.39h-3.49v-.67h3.28V65h-6.87v2.47h3.12v.67H184.9v.39h3.45v.7H184.1v.41h9v-.41Z" transform="translate(-0.47 -0.66)"/><path class="cls-2" d="M195,70a2.3,2.3,0,0,0,1.58-2.18c0-.62-.25-1-.72-1a.58.58,0,0,0-.62.61.56.56,0,0,0,.62.61l.21,0a1.83,1.83,0,0,1-1.24,1.64Z" transform="translate(-0.47 -0.66)"/><path class="cls-2" d="M208.41,65.66v-.44h-1.63V64H208v-.44h-1.27v-1.2h1.44v-.43h-1.44V60.79h-.45v1.13h-1.64v.43h1.64v1.2h-1.42V64h1.42v1.23h-1.8v.44h1.57a8.61,8.61,0,0,1-1.66,2.53,2.85,2.85,0,0,1,.26.41,9.34,9.34,0,0,0,1.63-2.54v3.78h.45V66.2c.4.51,1,1.27,1.18,1.61l.32-.4c-.21-.28-1-1.33-1.42-1.75Zm2.86,3.62c-.41,0-.49-.09-.49-.5V66.67l2.77-.42-.07-.43-2.7.4V64.4l2.41-.38-.08-.43-2.33.37V62.17a11.11,11.11,0,0,0,2.07-1l-.42-.33a14.49,14.49,0,0,1-3.93,1.67,1.53,1.53,0,0,1,.17.37c.54-.17,1.09-.34,1.64-.54V64l-1.72.27.07.43,1.65-.26v1.81l-1.95.29.07.44,1.88-.28v2c0,.74.2.91.93.91h1.5c.67,0,.8-.38.86-1.69a1.11,1.11,0,0,1-.42-.21c0,1.22-.1,1.5-.46,1.5Zm6.44-7.16v2.44h-2V62.12Zm-2,5.42V65h2v2.54Zm2.47-5.87h-2.93V68.8h.46V68h2.47Zm5.69,1.21h-1.32v-2h-.48v2h-3.39v.48h3.39V69c0,.22-.08.28-.28.29s-.94,0-1.79,0a2,2,0,0,1,.2.49,8.75,8.75,0,0,0,1.91-.08c.29-.08.44-.24.44-.69V63.36h1.32Zm-2.71,3.85c-.34-.62-1-1.67-1.61-2.47l-.39.19c.56.8,1.24,1.91,1.58,2.53Zm5-.22a22.38,22.38,0,0,0,2.57-3.32l-.43-.25a13.18,13.18,0,0,1-.71,1.12l-1.68.18a20,20,0,0,0,1.89-3.2l-.46-.2a16.73,16.73,0,0,1-1.58,2.87c-.24.35-.43.59-.59.63a3.18,3.18,0,0,1,.15.47,10.77,10.77,0,0,1,1.95-.3,13.46,13.46,0,0,1-1.26,1.55,2.12,2.12,0,0,1-.77.67c0,.13.12.35.15.46a20.3,20.3,0,0,1,3.43-.66,2.62,2.62,0,0,1,0-.42Zm-.88,2.67,3.65-.77,0-.43c-1.38.28-2.79.57-3.71.73Zm6.86-2.46a11.52,11.52,0,0,0-2-2.2l-.35.28a10.51,10.51,0,0,1,2,2.22Zm1.7-4.06H230.3a14.76,14.76,0,0,0,.61-1.77l-.47-.1a9.93,9.93,0,0,1-1.61,3.6,2.39,2.39,0,0,1,.41.26,8.54,8.54,0,0,0,.88-1.54h3.19c-.13,4.22-.29,5.75-.61,6.1a.4.4,0,0,1-.39.14c-.22,0-.8,0-1.44-.06a1.1,1.1,0,0,1,.16.47,12.17,12.17,0,0,0,1.41,0,.83.83,0,0,0,.69-.32c.38-.45.5-1.95.65-6.54Z" transform="translate(-0.47 -0.66)"/><path class="cls-2" d="M237.54,69.25a2,2,0,0,0,2.2-2.06,1.9,1.9,0,0,0-1.6-1.88v0a1.82,1.82,0,0,0,1.34-1.8,1.77,1.77,0,0,0-2-1.77,2.83,2.83,0,0,0-1.95.86l.34.4a2.29,2.29,0,0,1,1.6-.77,1.28,1.28,0,0,1,1.38,1.32c0,.87-.56,1.56-2.16,1.56v.49c1.74,0,2.42.66,2.42,1.64a1.52,1.52,0,0,1-1.62,1.56,2.49,2.49,0,0,1-1.92-.89l-.33.39a3,3,0,0,0,2.27,1Z" transform="translate(-0.47 -0.66)"/><path class="cls-2" d="M244.08,61a8.64,8.64,0,0,1-2.84,3.8,2.08,2.08,0,0,1,.42.34,9.89,9.89,0,0,0,2.91-4Zm-1.52,3.6v.47h2.11c-.24,1.83-.83,3.59-3.25,4.4a1.52,1.52,0,0,1,.3.38c2.51-.88,3.18-2.76,3.45-4.78h3.1c-.15,2.77-.31,3.81-.6,4.09-.1.1-.21.12-.44.12s-.9,0-1.61-.08a1.16,1.16,0,0,1,.17.48,13.66,13.66,0,0,0,1.61,0,.88.88,0,0,0,.7-.26c.35-.38.49-1.49.66-4.6,0-.07,0-.26,0-.26Zm4.37-3.44a12.1,12.1,0,0,0,2.93,3.89,2.06,2.06,0,0,1,.39-.39A10.11,10.11,0,0,1,247.36,61Zm8.25,1.31V62h-2.24a10.56,10.56,0,0,0,.45-1.1l-.44-.12a6.53,6.53,0,0,1-1.45,2.49,4.45,4.45,0,0,1,.28.43,6.71,6.71,0,0,0,.9-1.24Zm-1.48,6.28V66.24h1.54v-.45H253.7V64.21h1.25v-.45h-2.79v.45h1.08v1.58h-1.55v.45h1.55v2.34a1,1,0,0,1-.5.79,1.39,1.39,0,0,1,.27.38,13.5,13.5,0,0,1,2.25-1.3,1.92,1.92,0,0,1-.11-.4Zm4.45-2.66V63.43h1.68v2.69Zm-2.14,0V63.43h1.67v2.69ZM258.15,63V60.81h-.47V63h-2.12v4.23H256v-.61h1.67v3.27h.47V66.58h1.68v.56h.46V63Z" transform="translate(-0.47 -0.66)"/><g class="cls-3"><path class="cls-2" d="M262.72,70a2.3,2.3,0,0,0,1.58-2.18c0-.62-.25-1-.72-1a.58.58,0,0,0-.62.61.56.56,0,0,0,.62.61l.21,0a1.83,1.83,0,0,1-1.24,1.64Z" transform="translate(-0.47 -0.66)"/></g><path class="cls-2" d="M3,76.43A12.49,12.49,0,0,0,1.55,75l-.31.3a12.44,12.44,0,0,1,1.45,1.5Zm-.4,6V77.88H.47v.47H2.14v4a1,1,0,0,1-.46.8,1.76,1.76,0,0,1,.28.41,14.33,14.33,0,0,1,2-1.58,1.86,1.86,0,0,1-.19-.4Zm2.15-.63v-1H8.19v1ZM8.19,79.5v.92H4.76V79.5Zm.46-.41H4.3v4.66h.46V82.17H8.19v.94c0,.13,0,.17-.19.18s-.61,0-1.17,0A2.14,2.14,0,0,1,7,83.7a5.22,5.22,0,0,0,1.38-.07c.22-.08.29-.22.29-.51ZM6.72,78v-.86h2.2v-.39H6.72V76H9.23v-.4H6.72v-.84H6.25v.84H3.86V76H6.25v.78H4.08v.39H6.25V78H3.56v.41h6V78Zm6.72,2.77a8.69,8.69,0,0,1-2.22,2,2.32,2.32,0,0,1,.42.32,10.32,10.32,0,0,0,2.27-2.21Zm5-.86a8.25,8.25,0,0,1,.75.91l.39-.25a14.28,14.28,0,0,0-2.09-2.17l-.38.19c.31.28.66.6,1,.92l-5.23.36a29.7,29.7,0,0,0,4.93-3l-.39-.32c-.54.43-1.13.85-1.71,1.23L13,77.91a17.29,17.29,0,0,0,2.33-2.11,31,31,0,0,0,3.46-.54l-.35-.4a49.07,49.07,0,0,1-6.93.81,1.45,1.45,0,0,1,.12.42c1-.06,2-.13,3-.22a14.77,14.77,0,0,1-1.87,1.71A1.69,1.69,0,0,1,12,78c0,.12.12.36.15.46A18.1,18.1,0,0,1,15,78.21a23.48,23.48,0,0,1-2.17,1.24,4.78,4.78,0,0,1-1.37.55,3.2,3.2,0,0,1,.15.48,20.86,20.86,0,0,1,3.63-.36V83c0,.12,0,.16-.2.17s-.66,0-1.31,0a1.5,1.5,0,0,1,.19.48,5.82,5.82,0,0,0,1.47-.09c.25-.09.33-.23.33-.55V80.09Zm-1.63,1a24.48,24.48,0,0,1,2.44,2.22l.39-.29a24.86,24.86,0,0,0-2.47-2.16Zm7.5-3.68a11,11,0,0,1-1,3.66c-.43-.33-.89-.65-1.34-.93.22-.76.46-1.74.68-2.73Zm.21-.48-.09,0H22.74c.14-.71.27-1.43.36-2l-.48,0c-.08.63-.2,1.36-.34,2.09H21.11v.46h1.07a28.74,28.74,0,0,1-.77,2.93,13.79,13.79,0,0,1,1.65,1.17,4.9,4.9,0,0,1-2.09,2,1.48,1.48,0,0,1,.32.39,5.65,5.65,0,0,0,2.15-2.09,7.7,7.7,0,0,1,1.11,1.12l.34-.39a8,8,0,0,0-1.21-1.17,12.18,12.18,0,0,0,1.11-4.37ZM30.16,79H27.84V77.91a10.62,10.62,0,0,0,1.95-2.17l-.35-.25-.11,0H25.39V76H29a9.54,9.54,0,0,1-1.64,1.77V79H24.92v.46h2.43v3.64c0,.15,0,.19-.21.2H25.82a3.05,3.05,0,0,1,.2.46,6.81,6.81,0,0,0,1.46-.08c.26-.09.36-.24.36-.58V79.48h2.33Zm2.3-2.65h7V77.8h.49V75.91h-3.6a9.57,9.57,0,0,0-.6-1.2l-.48.11c.18.34.39.76.53,1.09H32V77.8h.48Zm5.22,2.71a5.47,5.47,0,0,1-1.49,2.31c-.81-.33-1.65-.63-2.45-.89.3-.4.62-.89.95-1.42Zm2.55,0v-.46H35A16.36,16.36,0,0,0,35.79,77l-.48-.1a14,14,0,0,1-.88,1.71H31.72v.46h2.44A19.45,19.45,0,0,1,33,80.74c.88.27,1.84.62,2.77,1a9.25,9.25,0,0,1-3.86,1.54,1.45,1.45,0,0,1,.32.44,9.9,9.9,0,0,0,4-1.78,22.32,22.32,0,0,1,3.26,1.69l.39-.42a21.35,21.35,0,0,0-3.23-1.63,6.37,6.37,0,0,0,1.53-2.51Zm6.28,2h2.88v-.44H46.52v-1.8h2.83v-.45H43.27v.45H46v1.8H43.29v.44H46V83H42v.45h8.5V83h-4Zm-.24-6.52a11.74,11.74,0,0,1-4.67,4,1.32,1.32,0,0,1,.34.37,13,13,0,0,0,4.33-3.6,17.78,17.78,0,0,0,4.35,3.64,1.19,1.19,0,0,1,.34-.4A15.62,15.62,0,0,1,46.54,75l.17-.25ZM52.46,80h.47v-1.5h3.4v1.3H53.57v3H54V80.28h2.28v3.49h.49V80.28h2.45v2c0,.11,0,.15-.17.16s-.59,0-1.21,0a1.21,1.21,0,0,1,.17.43,5.69,5.69,0,0,0,1.39-.08c.24-.08.3-.22.3-.51V79.84H56.82v-1.3h3.45V80h.49V78.11h-8.3Zm6.93-4V74.78h-.47V76h-2.1V74.77h-.48V76h-2V74.78h-.47V76H52.15v.44h1.71v1.12h.47V76.44h2v1.1h.48v-1.1h2.1V77.6h.47V76.44h1.68V76Z" transform="translate(-0.47 -0.66)"/><path class="cls-2" d="M63.87,80.62a1.47,1.47,0,1,0,1.47,1.47,1.47,1.47,0,0,0-1.47-1.47Zm0,2.55a1.08,1.08,0,0,1-1.09-1.08,1.08,1.08,0,0,1,2.17,0,1.07,1.07,0,0,1-1.08,1.08Z" transform="translate(-0.47 -0.66)"/><path class="cls-2" d="M24.09,13.89c2.52,0,3.27-1,3.6-4.68a7.53,7.53,0,0,1-2.46-1c-.12,2.79-.33,3.27-1.41,3.27H19.71c-1.26,0-1.47-.18-1.47-1.14V7.77a55.57,55.57,0,0,0,8.1-2.91l-1.8-2a48.52,48.52,0,0,1-6.3,2.67V.81H15.51v9.51c0,2.76.75,3.57,3.87,3.57ZM4.65,20.25V18h5.52v2.25Zm5.52-6.54v2.13H4.65V13.71Zm2.76-2.34H2V28.26H4.65V22.41h5.52v2.85c0,.36-.09.48-.48.48s-1.65,0-2.91,0a10.25,10.25,0,0,1,.93,2.52,10.06,10.06,0,0,0,4.08-.48c.87-.42,1.14-1.14,1.14-2.46ZM8.37,3.45a29.57,29.57,0,0,1,1.83,3l-5.61.36A34.35,34.35,0,0,0,8,1.5L5.13.66A23.73,23.73,0,0,1,2.19,5.79,2.72,2.72,0,0,1,.78,7,18.84,18.84,0,0,1,1.71,9.6c.72-.3,1.8-.45,9.51-1a12.14,12.14,0,0,1,.63,1.56l2.49-1a27.58,27.58,0,0,0-3.63-6.51ZM19.8,25.62c-1.29,0-1.53-.18-1.53-1.17v-3a42.3,42.3,0,0,0,8.37-3.27l-1.83-2.07a31.07,31.07,0,0,1-6.54,3V14.67H15.51v9.78c0,2.79.81,3.6,4,3.6h4.74c2.64,0,3.39-1.08,3.72-5.16a8.58,8.58,0,0,1-2.46-1c-.15,3.21-.36,3.78-1.5,3.78Z" transform="translate(-0.47 -0.66)"/></svg>